<svg width="1435" height="188" viewBox="0 0 1435 188" fill="none" xmlns="http://www.w3.org/2000/svg">
<path d="M112.437 4.43283C142.259 4.43283 168.32 10.4778 190.619 22.5678C213.187 34.3892 230.516 51.0465 242.606 72.5398C254.696 94.0332 260.741 118.616 260.741 146.289C260.741 173.693 254.562 198.142 242.203 219.635C230.113 241.128 212.784 258.054 190.216 270.413C167.917 282.503 141.99 288.548 112.437 288.548H0.000129603V4.43283H112.437ZM106.392 218.829C129.497 218.829 147.632 212.515 160.797 199.888C173.962 187.261 180.544 169.394 180.544 146.289C180.544 122.915 173.962 104.914 160.797 92.2868C147.632 79.3908 129.497 72.9428 106.392 72.9428H78.9881V218.829H106.392ZM440.218 288.548L383.798 183.768H375.335V288.548H296.347V4.43283H420.874C443.71 4.43283 463.054 8.46284 478.906 16.5228C494.757 24.3142 506.713 35.1952 514.773 49.1658C522.833 62.8678 526.863 78.3162 526.863 95.5108C526.863 114.855 521.489 131.915 510.743 146.692C500.265 161.2 484.816 171.544 464.398 177.723L528.475 288.548H440.218ZM375.335 129.766H414.426C425.172 129.766 433.232 127.214 438.606 122.109C443.979 117.004 446.666 109.616 446.666 99.9438C446.666 90.8092 443.845 83.6895 438.203 78.5848C432.829 73.2115 424.904 70.5248 414.426 70.5248H375.335V129.766ZM641.771 4.43283V288.548H562.783V4.43283H641.771ZM879.387 4.43283V67.3008H765.741V117.273H849.565V177.32H765.741V288.548H686.753V4.43283H879.387ZM1126.65 4.43283V67.3008H1050.88V288.548H971.894V67.3008H896.936V4.43283H1126.65ZM1292.08 291.369C1265.49 291.369 1241.04 285.19 1218.74 272.831C1196.44 260.204 1178.71 242.875 1165.54 220.844C1152.65 198.545 1146.2 173.424 1146.2 145.483C1146.2 117.542 1152.65 92.5555 1165.54 70.5248C1178.71 48.2255 1196.44 30.8965 1218.74 18.5378C1241.04 6.17918 1265.49 -0.000156701 1292.08 -0.000156701C1318.95 -0.000156701 1343.4 6.17918 1365.43 18.5378C1387.73 30.8965 1405.33 48.2255 1418.22 70.5248C1431.12 92.5555 1437.57 117.542 1437.57 145.483C1437.57 173.424 1431.12 198.545 1418.22 220.844C1405.33 242.875 1387.73 260.204 1365.43 272.831C1343.13 285.19 1318.68 291.369 1292.08 291.369ZM1292.08 218.023C1312.23 218.023 1328.09 211.441 1339.64 198.276C1351.46 185.111 1357.37 167.514 1357.37 145.483C1357.37 122.915 1351.46 105.183 1339.64 92.2868C1328.09 79.1222 1312.23 72.5398 1292.08 72.5398C1271.67 72.5398 1255.68 79.1222 1244.13 92.2868C1232.57 105.183 1226.8 122.915 1226.8 145.483C1226.8 167.782 1232.57 185.514 1244.13 198.679C1255.68 211.575 1271.67 218.023 1292.08 218.023Z" fill="url(#paint0_linear_2037_7197)" fill-opacity="0.2"/>
<defs>
<linearGradient id="paint0_linear_2037_7197" x1="691.97" y1="260.548" x2="693.47" y2="1.54788" gradientUnits="userSpaceOnUse">
<stop stop-color="white" stop-opacity="0"/>
<stop offset="0.658654" stop-opacity="0.67"/>
</linearGradient>
</defs>
</svg>
