<?xml version="1.0" encoding="UTF-8"?>
<svg version="1.1" xmlns="http://www.w3.org/2000/svg" width="207" height="208">
  <path d="M0 0 C11.97371012 9.82770912 18.52522299 24.64000694 20.06445312 39.93261719 C20.14663169 41.36600251 20.21802836 42.80002852 20.28125 44.234375 C20.31998734 45.06777405 20.35872467 45.9011731 20.39863586 46.75982666 C20.96976554 61.06669109 20.87450043 75.39963862 20.87280273 89.71533203 C20.87270069 94.07394832 20.88643276 98.43240328 20.90357494 102.79098129 C20.91479671 106.20406805 20.91671897 109.61711674 20.91619301 113.03022003 C20.91735477 114.63583184 20.92167185 116.24144525 20.92952538 117.84703827 C21.0129962 136.64329154 20.26117759 153.27839808 7.0625 168 C5.6875 169.1875 5.6875 169.1875 3.6875 169.1875 C3.6875 169.8475 3.6875 170.5075 3.6875 171.1875 C-14.26569876 189.71428339 -52.00747459 194.75927892 -76.30859375 195.390625 C-78.45568321 195.41163627 -80.60283258 195.42717087 -82.75 195.4375 C-84.35198242 195.4684375 -84.35198242 195.4684375 -85.98632812 195.5 C-102.02153678 195.57836388 -115.78937701 188.80574492 -127.171875 177.5703125 C-143.81191119 160.18952632 -143.81191119 160.18952632 -145.3125 152.1875 C-145.9725 152.1875 -146.6325 152.1875 -147.3125 152.1875 C-148.6015625 150.5078125 -148.6015625 150.5078125 -149.9375 148.3125 C-150.38351563 147.59320313 -150.82953125 146.87390625 -151.2890625 146.1328125 C-152.3125 144.1875 -152.3125 144.1875 -152.3125 142.1875 C-152.9725 142.1875 -153.6325 142.1875 -154.3125 142.1875 C-155.79296875 140.16796875 -155.79296875 140.16796875 -157.5 137.375 C-160.21494646 132.95274965 -160.21494646 132.95274965 -163.046875 128.60546875 C-166.73815605 123.0939459 -169.78918785 117.42170299 -172.625 111.4375 C-172.96265381 110.72835449 -173.30030762 110.01920898 -173.64819336 109.28857422 C-178.4584189 98.89420372 -180.39916752 88.49453728 -176.6875 77.375 C-170.70119618 62.98284099 -158.56926555 55.27993883 -145.3125 48.1875 C-144.08824412 47.5213799 -142.86428505 46.854714 -141.640625 46.1875 C-132.04041019 40.98404892 -122.27286546 36.12300938 -112.48535156 31.28417969 C-104.58656172 27.3757223 -96.74239082 23.37618743 -88.93237305 19.29272461 C-78.2524996 13.71463864 -67.53010802 8.254374 -56.6875 3 C-55.58043701 2.45964111 -54.47337402 1.91928223 -53.33276367 1.36254883 C-36.07870804 -6.93045698 -16.95482925 -11.93236096 0 0 Z M-46.421875 22.44921875 C-47.93760101 23.21344902 -47.93760101 23.21344902 -49.48394775 23.99311829 C-52.68268369 25.60909782 -55.87264686 27.24156852 -59.0625 28.875 C-61.18432578 29.95099465 -63.30671805 31.02587298 -65.4296875 32.09960938 C-69.53557023 34.17790087 -73.63795683 36.26284437 -77.73754883 38.35351562 C-82.4766572 40.76776416 -87.2320831 43.14710541 -91.99609375 45.51171875 C-98.9495547 48.97128107 -105.80010434 52.60648588 -112.625 56.3125 C-114.23858398 57.18455078 -114.23858398 57.18455078 -115.88476562 58.07421875 C-120.05608595 60.33021413 -124.22640763 62.5869039 -128.37646484 64.88183594 C-129.82013428 65.67895996 -129.82013428 65.67895996 -131.29296875 66.4921875 C-132.14141357 66.96382324 -132.9898584 67.43545898 -133.86401367 67.92138672 C-136.29918105 69.18061276 -138.75152772 70.21344399 -141.3125 71.1875 C-141.3125 71.8475 -141.3125 72.5075 -141.3125 73.1875 C-141.89515625 73.30222656 -142.4778125 73.41695312 -143.078125 73.53515625 C-145.47773135 74.23574062 -147.04110933 75.16942595 -149.0625 76.625 C-149.67609375 77.05683594 -150.2896875 77.48867187 -150.921875 77.93359375 C-151.38078125 78.34738281 -151.8396875 78.76117188 -152.3125 79.1875 C-152.3125 79.8475 -152.3125 80.5075 -152.3125 81.1875 C-152.9725 81.1875 -153.6325 81.1875 -154.3125 81.1875 C-156.86967425 87.58043563 -156.48860557 92.67506727 -154.3125 99.1875 C-149.16269864 110.65497083 -141.57304475 120.99195058 -134.3125 131.1875 C-133.40868218 132.46602427 -132.50503365 133.74466823 -131.6015625 135.0234375 C-127.26361634 141.14537007 -122.90730618 147.25496544 -118.3125 153.1875 C-117.64863281 154.07179687 -116.98476562 154.95609375 -116.30078125 155.8671875 C-109.74371082 164.31241958 -103.01863129 170.87497564 -92.3125 173.1875 C-66.66888106 175.58955417 -33.56033961 171.00681633 -12.3125 155.1875 C-5.73976385 149.12126502 -2.34502146 143.11526572 -1.3125 134.1875 C-1.22464948 131.68818324 -1.18465588 129.18689492 -1.18310547 126.68603516 C-1.18135315 125.97104858 -1.17960083 125.25606201 -1.17779541 124.51940918 C-1.17342059 122.17176837 -1.17630259 119.82420399 -1.1796875 117.4765625 C-1.17901247 115.82335394 -1.17804079 114.17014548 -1.17678833 112.51693726 C-1.17531663 109.05213475 -1.17744621 105.58735808 -1.18212891 102.12255859 C-1.18778111 97.73120333 -1.18457269 93.33990982 -1.17855644 88.9485569 C-1.17489809 85.53025876 -1.17611403 82.11197462 -1.17868423 78.69367599 C-1.17934137 77.07773201 -1.17856869 75.46178666 -1.17620468 73.84584427 C-1.16677443 65.57787701 -1.27261622 57.32957156 -1.70751953 49.07177734 C-1.73943327 48.39903086 -1.77134701 47.72628437 -1.80422783 47.03315163 C-2.46027159 36.05223197 -5.38829743 26.75310343 -12 17.9375 C-22.56681316 9.94099274 -36.20898151 17.17415102 -46.421875 22.44921875 Z " fill="white" transform="translate(182.3125,10.8125)"/>
  <path d="M0 0 C0.66 0.33 1.32 0.66 2 1 C-4.435 6.94 -4.435 6.94 -11 13 C-11 10 -11 10 -9.35546875 8.02734375 C-8.64003906 7.33769531 -7.92460937 6.64804688 -7.1875 5.9375 C-6.47980469 5.24527344 -5.77210937 4.55304688 -5.04296875 3.83984375 C-3 2 -3 2 0 0 Z " fill="white" transform="translate(23,67)"/>
</svg>
