<svg width="20" height="20" viewBox="0 0 20 20" fill="none" xmlns="http://www.w3.org/2000/svg">
<path d="M12.0833 13.3333L9.25 10.496V6.5H10.75V9.875L13.1458 12.2708L12.0833 13.3333ZM9.25 5V3.5H10.75V5H9.25ZM15 10.75V9.25H16.5V10.75H15ZM9.25 16.5V15H10.75V16.5H9.25ZM3.5 10.75V9.25H5V10.75H3.5ZM10 18C8.8975 18 7.86146 17.7917 6.89188 17.375C5.92229 16.9583 5.07292 16.3854 4.34375 15.6562C3.61458 14.9271 3.04167 14.0767 2.625 13.105C2.20833 12.1333 2 11.0951 2 9.99042C2 8.88569 2.20833 7.84722 2.625 6.875C3.04167 5.90278 3.61458 5.05556 4.34375 4.33333C5.07292 3.61111 5.92333 3.04167 6.895 2.625C7.86667 2.20833 8.90486 2 10.0096 2C11.1143 2 12.1528 2.21 13.1252 2.63C14.0974 3.05 14.9432 3.62 15.6625 4.34C16.3817 5.06 16.951 5.90667 17.3706 6.88C17.7902 7.85333 18 8.89333 18 10C18 11.1025 17.7917 12.1385 17.375 13.1081C16.9583 14.0777 16.3889 14.9271 15.6667 15.6562C14.9444 16.3854 14.0963 16.9583 13.1223 17.375C12.1483 17.7917 11.1075 18 10 18ZM10.0096 16.5C11.8215 16.5 13.3563 15.8681 14.6138 14.6042C15.8713 13.3403 16.5 11.8024 16.5 9.99042C16.5 8.17847 15.8713 6.64375 14.6138 5.38625C13.3563 4.12875 11.8215 3.5 10.0096 3.5C8.19764 3.5 6.65972 4.12875 5.39583 5.38625C4.13194 6.64375 3.5 8.17847 3.5 9.99042C3.5 11.8024 4.13194 13.3403 5.39583 14.6042C6.65972 15.8681 8.19764 16.5 10.0096 16.5Z" fill="#F56B13"/>
</svg>
