<svg width="400" height="442" viewBox="0 0 400 442" fill="none" xmlns="http://www.w3.org/2000/svg">
<path d="M129.789 155.443L77.2448 367.076C75.0308 375.976 75.6948 385.349 79.1413 393.849C82.5879 402.349 88.6399 409.539 96.4285 414.386C116.472 426.847 149.608 440.334 200.281 441.881C253.992 443.52 289.723 428.096 310.852 414.095C318.319 409.142 324.07 402.002 327.316 393.652C330.562 385.303 331.145 376.154 328.983 367.461L276.341 155.443" fill="#F4F4F4"/>
<path d="M203.064 165.272C272.73 165.272 329.206 146.234 329.206 122.75C329.206 99.2654 272.73 80.2275 203.064 80.2275C133.399 80.2275 76.9233 99.2654 76.9233 122.75C76.9233 146.234 133.399 165.272 203.064 165.272Z" fill="#262626"/>
<path d="M203.065 165.978C169.296 165.978 137.539 161.542 113.644 153.485C89.5087 145.349 76.2168 134.433 76.2168 122.748C76.2168 111.064 89.5075 100.148 113.644 92.012C137.539 83.9571 169.296 79.5186 203.065 79.5186C236.833 79.5186 268.59 83.9553 292.485 92.012C316.62 100.148 329.912 111.064 329.912 122.748C329.912 134.433 316.621 145.349 292.485 153.485C268.59 161.542 236.833 165.978 203.065 165.978ZM203.065 80.9337C169.445 80.9337 137.849 85.3436 114.094 93.351C90.5793 101.278 77.6288 111.719 77.6288 122.75C77.6288 133.782 90.5793 144.223 114.094 152.15C137.849 160.157 169.446 164.567 203.065 164.567C236.683 164.567 268.28 160.157 292.034 152.15C315.549 144.223 328.5 133.782 328.5 122.75C328.5 111.719 315.549 101.278 292.034 93.351C268.28 85.3436 236.683 80.9337 203.065 80.9337Z" fill="#262626"/>
<path d="M203.064 149.074C294.596 149.074 368.797 128.668 368.797 103.497C368.797 78.3254 294.596 57.9199 203.064 57.9199C111.533 57.9199 37.3315 78.3254 37.3315 103.497C37.3315 128.668 111.533 149.074 203.064 149.074Z" fill="#007AFF"/>
<path d="M203.064 149.779C158.734 149.779 117.048 145.029 85.686 136.404C54.0486 127.704 36.625 116.017 36.625 103.495C36.625 90.972 54.0486 79.2872 85.686 70.5851C117.048 61.9603 158.734 57.2109 203.064 57.2109C247.395 57.2109 289.08 61.9603 320.442 70.5851C352.08 79.2854 369.503 90.9726 369.503 103.495C369.503 116.017 352.08 127.702 320.442 136.404C289.08 145.029 247.394 149.779 203.064 149.779ZM203.064 58.6254C158.857 58.6254 117.304 63.3577 86.0604 71.9496C70.9096 76.1157 59.0266 80.9601 50.74 86.3476C42.3107 91.8283 38.037 97.5978 38.037 103.497C38.037 109.395 42.3107 115.165 50.74 120.646C59.0266 126.033 70.9096 130.877 86.0604 135.044C117.304 143.637 158.854 148.368 203.064 148.368C247.274 148.368 288.824 143.636 320.068 135.044C335.219 130.877 347.102 126.033 355.388 120.646C363.817 115.165 368.091 109.395 368.091 103.497C368.091 97.5978 363.817 91.8283 355.388 86.3476C347.102 80.9601 335.219 76.1157 320.068 71.9496C288.824 63.3577 247.271 58.6279 203.064 58.6279V58.6254Z" fill="#262626"/>
<path d="M279.32 76.9333C279.32 97.0819 244.386 101.828 207.957 102.691C168.268 103.63 126.811 96.7736 126.811 76.9333C126.868 56.7538 134.927 37.4203 149.222 23.1714C163.516 8.92247 182.88 0.920898 203.067 0.920898C223.254 0.920898 242.617 8.92247 256.912 23.1714C271.206 37.4203 279.266 56.7538 279.323 76.9333H279.32Z" fill="white"/>
<path d="M269.423 72.9448C269.239 72.9447 269.063 72.8733 268.931 72.7457C268.8 72.618 268.723 72.4442 268.717 72.261C268.503 65.0285 267.073 57.8835 264.488 51.125C264.421 50.9502 264.426 50.756 264.503 50.5851C264.579 50.4142 264.72 50.2806 264.895 50.2136C265.07 50.1467 265.264 50.152 265.435 50.2283C265.606 50.3046 265.74 50.4456 265.807 50.6204C268.448 57.5265 269.909 64.8274 270.129 72.2177C270.134 72.4047 270.066 72.5863 269.938 72.7227C269.809 72.859 269.632 72.9389 269.445 72.9448H269.423Z" fill="#262626"/>
<path d="M258.878 39.2945C258.76 39.2948 258.645 39.2656 258.541 39.2096C258.438 39.1536 258.35 39.0726 258.286 38.974C248.97 24.7583 234.47 14.7398 217.874 11.052C217.696 11.0078 217.542 10.8959 217.445 10.7399C217.347 10.5839 217.315 10.3961 217.354 10.2166C217.393 10.037 217.501 9.87982 217.654 9.77839C217.807 9.67695 217.994 9.63929 218.175 9.6734C235.133 13.4411 249.949 23.6777 259.468 38.203C259.538 38.3094 259.577 38.4326 259.582 38.5596C259.588 38.6866 259.559 38.8126 259.498 38.9244C259.438 39.0362 259.348 39.1296 259.239 39.1947C259.13 39.2599 259.005 39.2944 258.878 39.2945Z" fill="#262626"/>
<path d="M200.563 103.483C166.849 103.483 141.182 97.8152 131.125 88.0032C127.792 84.75 126.103 81.0252 126.103 76.9328C126.074 66.8116 128.044 56.7843 131.899 47.4254C135.754 38.0664 141.418 29.5598 148.568 22.393C155.717 15.2261 164.211 9.53992 173.562 5.66012C182.914 1.78032 192.939 -0.216797 203.064 -0.216797C213.189 -0.216797 223.215 1.78032 232.566 5.66012C241.918 9.53992 250.412 15.2261 257.561 22.393C264.71 29.5598 270.375 38.0664 274.23 47.4254C278.085 56.7843 280.054 66.8116 280.026 76.9328C280.026 86.437 272.445 93.4315 257.494 97.7219C245.991 101.023 229.792 102.879 207.974 103.395C205.464 103.454 202.994 103.483 200.563 103.483ZM203.063 1.40997C183.033 1.43256 163.829 9.39651 149.666 23.5546C135.502 37.7128 127.535 56.9089 127.512 76.9316C127.512 80.6296 129.059 84.0145 132.11 86.9922C142.622 97.2545 170.966 102.857 207.938 101.984C238.28 101.267 278.617 97.8883 278.617 76.9334C278.595 56.9102 270.628 37.7137 256.463 23.5554C242.299 9.39719 223.095 1.43358 203.065 1.4118L203.063 1.40997Z" fill="#262626"/>
<path d="M79.6639 109.598C85.1327 109.598 89.5661 105.166 89.5661 99.6993C89.5661 94.2325 85.1327 89.8008 79.6639 89.8008C74.1951 89.8008 69.7617 94.2325 69.7617 99.6993C69.7617 105.166 74.1951 109.598 79.6639 109.598Z" fill="white"/>
<path d="M79.6639 110.303C77.5658 110.303 75.5148 109.681 73.7703 108.516C72.0258 107.351 70.6661 105.695 69.8632 103.757C69.0603 101.819 68.8502 99.6872 69.2595 97.6302C69.6688 95.5732 70.6792 93.6837 72.1627 92.2006C73.6463 90.7176 75.5365 89.7077 77.5943 89.2985C79.6521 88.8893 81.785 89.0993 83.7234 89.9019C85.6618 90.7045 87.3186 92.0637 88.4842 93.8076C89.6499 95.5514 90.272 97.6016 90.272 99.699C90.2688 102.51 89.1501 105.206 87.1614 107.194C85.1727 109.182 82.4763 110.3 79.6639 110.303ZM79.6639 90.5056C77.8449 90.5056 76.0668 91.0448 74.5544 92.0549C73.042 93.0651 71.8632 94.5009 71.1671 96.1808C70.471 97.8607 70.2889 99.7092 70.6438 101.492C70.9986 103.276 71.8745 104.914 73.1607 106.2C74.4469 107.485 76.0856 108.361 77.8696 108.716C79.6537 109.07 81.5028 108.888 83.1833 108.193C84.8638 107.497 86.3002 106.318 87.3107 104.807C88.3213 103.295 88.8607 101.517 88.8607 99.699C88.8582 97.2615 87.8885 94.9245 86.1643 93.2009C84.4401 91.4774 82.1023 90.508 79.6639 90.5056Z" fill="#262626"/>
<path d="M203.064 137.945C208.533 137.945 212.966 133.514 212.966 128.047C212.966 122.58 208.533 118.148 203.064 118.148C197.595 118.148 193.162 122.58 193.162 128.047C193.162 133.514 197.595 137.945 203.064 137.945Z" fill="white"/>
<path d="M203.064 138.651C200.966 138.651 198.915 138.029 197.171 136.864C195.426 135.699 194.066 134.042 193.264 132.105C192.461 130.167 192.251 128.035 192.66 125.978C193.069 123.921 194.08 122.031 195.563 120.548C197.047 119.065 198.937 118.055 200.995 117.646C203.052 117.237 205.185 117.447 207.124 118.25C209.062 119.052 210.719 120.411 211.885 122.155C213.05 123.899 213.672 125.949 213.672 128.047C213.669 130.858 212.551 133.553 210.562 135.541C208.573 137.529 205.877 138.648 203.064 138.651ZM203.064 118.854C201.245 118.854 199.467 119.393 197.955 120.403C196.443 121.413 195.264 122.849 194.568 124.529C193.872 126.208 193.69 128.057 194.045 129.84C194.4 131.623 195.275 133.261 196.562 134.547C197.848 135.833 199.486 136.708 201.27 137.063C203.054 137.417 204.903 137.235 206.583 136.54C208.264 135.844 209.7 134.666 210.711 133.154C211.721 131.642 212.26 129.865 212.26 128.047C212.258 125.609 211.288 123.273 209.564 121.549C207.84 119.826 205.502 118.856 203.064 118.854Z" fill="#262626"/>
<path d="M326.443 109.598C331.912 109.598 336.345 105.166 336.345 99.6993C336.345 94.2325 331.912 89.8008 326.443 89.8008C320.974 89.8008 316.541 94.2325 316.541 99.6993C316.541 105.166 320.974 109.598 326.443 109.598Z" fill="white"/>
<path d="M326.443 110.303C324.345 110.303 322.294 109.681 320.55 108.516C318.805 107.351 317.445 105.695 316.642 103.757C315.84 101.819 315.629 99.6872 316.039 97.6302C316.448 95.5732 317.458 93.6837 318.942 92.2006C320.426 90.7176 322.316 89.7077 324.374 89.2985C326.431 88.8893 328.564 89.0993 330.503 89.9019C332.441 90.7045 334.098 92.0637 335.264 93.8076C336.429 95.5514 337.051 97.6016 337.051 99.699C337.048 102.51 335.929 105.206 333.941 107.194C331.952 109.182 329.256 110.3 326.443 110.303ZM326.443 90.5056C324.624 90.5056 322.846 91.0448 321.334 92.0549C319.821 93.0651 318.643 94.5009 317.946 96.1808C317.25 97.8607 317.068 99.7092 317.423 101.492C317.778 103.276 318.654 104.914 319.94 106.2C321.226 107.485 322.865 108.361 324.649 108.716C326.433 109.07 328.282 108.888 329.963 108.193C331.643 107.497 333.079 106.318 334.09 104.807C335.101 103.295 335.64 101.517 335.64 99.699C335.638 97.2615 334.668 94.9245 332.944 93.2009C331.219 91.4774 328.882 90.508 326.443 90.5056Z" fill="#262626"/>
<path d="M273.819 128.047C279.288 128.047 283.721 123.615 283.721 118.148C283.721 112.682 279.288 108.25 273.819 108.25C268.35 108.25 263.917 112.682 263.917 118.148C263.917 123.615 268.35 128.047 273.819 128.047Z" fill="white"/>
<path d="M273.819 128.752C271.721 128.752 269.67 128.13 267.925 126.965C266.181 125.8 264.821 124.144 264.018 122.206C263.215 120.269 263.005 118.136 263.414 116.079C263.824 114.022 264.834 112.133 266.318 110.65C267.801 109.167 269.691 108.157 271.749 107.748C273.807 107.339 275.94 107.549 277.878 108.351C279.817 109.154 281.473 110.513 282.639 112.257C283.805 114.001 284.427 116.051 284.427 118.148C284.424 120.96 283.305 123.655 281.316 125.643C279.327 127.631 276.631 128.749 273.819 128.752ZM273.819 108.955C272 108.955 270.221 109.494 268.709 110.504C267.197 111.514 266.018 112.95 265.321 114.63C264.625 116.309 264.443 118.158 264.798 119.941C265.153 121.725 266.029 123.363 267.315 124.649C268.601 125.934 270.24 126.81 272.024 127.165C273.808 127.52 275.657 127.338 277.337 126.642C279.018 125.946 280.454 124.768 281.465 123.256C282.475 121.744 283.015 119.966 283.015 118.148C283.012 115.711 282.043 113.374 280.319 111.65C278.595 109.927 276.257 108.957 273.819 108.955Z" fill="#262626"/>
<path d="M132.31 129.395C137.779 129.395 142.212 124.963 142.212 119.496C142.212 114.029 137.779 109.598 132.31 109.598C126.841 109.598 122.408 114.029 122.408 119.496C122.408 124.963 126.841 129.395 132.31 129.395Z" fill="white"/>
<path d="M132.31 130.101C130.212 130.101 128.161 129.479 126.416 128.314C124.672 127.149 123.312 125.493 122.509 123.555C121.706 121.617 121.496 119.485 121.905 117.428C122.315 115.371 123.325 113.482 124.809 111.998C126.292 110.515 128.183 109.506 130.24 109.096C132.298 108.687 134.431 108.897 136.369 109.7C138.308 110.502 139.965 111.862 141.13 113.605C142.296 115.349 142.918 117.399 142.918 119.497C142.915 122.308 141.796 125.004 139.807 126.992C137.819 128.98 135.122 130.098 132.31 130.101ZM132.31 110.303C130.491 110.303 128.712 110.842 127.199 111.851C125.687 112.861 124.507 114.297 123.811 115.977C123.114 117.657 122.932 119.505 123.286 121.289C123.641 123.072 124.517 124.711 125.803 125.997C127.089 127.283 128.728 128.158 130.512 128.513C132.296 128.868 134.145 128.686 135.826 127.99C137.507 127.295 138.943 126.116 139.954 124.604C140.964 123.092 141.504 121.315 141.504 119.496C141.501 117.059 140.532 114.723 138.808 113C137.085 111.276 134.748 110.307 132.31 110.303Z" fill="#262626"/>
<path d="M308.064 68.2336C307.326 70.468 305.816 72.3665 303.805 73.589C301.794 74.8115 299.413 75.278 297.089 74.9048C294.765 74.5317 292.65 73.3433 291.122 71.5527C289.595 69.7621 288.756 67.4864 288.755 65.1334C288.755 64.9122 288.765 64.6958 288.779 64.4795C295.542 65.6088 301.985 66.86 308.064 68.2336Z" fill="white"/>
<path d="M298.657 75.736C295.844 75.7333 293.148 74.6152 291.159 72.6271C289.17 70.639 288.052 67.9434 288.049 65.1318C288.049 64.8954 288.059 64.6632 288.074 64.4316L288.125 63.6533L288.894 63.7819C295.695 64.9173 302.197 66.1831 308.221 67.5434L308.979 67.7152L308.735 68.4533C308.038 70.5743 306.688 72.4207 304.878 73.7286C303.068 75.0366 300.89 75.7392 298.657 75.736ZM289.463 65.3092C289.504 67.412 290.265 69.4372 291.619 71.0472C292.972 72.6572 294.837 73.7545 296.903 74.1563C298.968 74.558 301.108 74.2398 302.967 73.2548C304.826 72.2698 306.291 70.6774 307.118 68.7433C301.583 67.5092 295.651 66.3556 289.463 65.3092Z" fill="#262626"/>
<path d="M116.309 65.1326C116.308 67.4656 115.483 69.7235 113.98 71.5079C112.476 73.2923 110.391 74.4886 108.091 74.8858C105.791 75.283 103.425 74.8555 101.409 73.6788C99.3941 72.502 97.8593 70.6516 97.0757 68.454C103.132 67.0706 109.551 65.8005 116.295 64.6572C116.304 64.8126 116.309 64.9723 116.309 65.1326Z" fill="white"/>
<path d="M106.407 75.7355C104.218 75.7323 102.083 75.0542 100.294 73.7934C98.5043 72.5327 97.1476 70.7509 96.4086 68.691L96.1416 67.9426L96.9165 67.7658C103.003 66.3757 109.482 65.0959 116.175 63.9617L116.95 63.8301L116.998 64.6144C117.008 64.7839 117.013 64.9581 117.013 65.1324C117.01 67.9433 115.891 70.6382 113.903 72.6259C111.915 74.6136 109.219 75.7319 106.407 75.7355ZM98.0419 68.9579C98.9028 70.8376 100.372 72.3724 102.213 73.3145C104.054 74.2567 106.159 74.5513 108.187 74.1507C110.216 73.7501 112.051 72.6778 113.395 71.1068C114.739 69.5357 115.515 67.5577 115.596 65.492C109.514 66.5366 103.617 67.7006 98.0419 68.9579Z" fill="#262626"/>
<path d="M218.469 410.684L127.948 359.138L197.999 236.213L260.592 271.856L272.61 315.677L218.469 410.684Z" fill="white"/>
<path opacity="0.3" d="M233.153 349.456C236.13 349.456 238.545 347.042 238.545 344.066C238.545 341.089 236.13 338.676 233.153 338.676C230.175 338.676 227.761 341.089 227.761 344.066C227.761 347.042 230.175 349.456 233.153 349.456Z" fill="#007AFF"/>
<path opacity="0.3" d="M176.251 321.067C179.229 321.067 181.643 318.654 181.643 315.677C181.643 312.7 179.229 310.287 176.251 310.287C173.273 310.287 170.859 312.7 170.859 315.677C170.859 318.654 173.273 321.067 176.251 321.067Z" fill="#007AFF"/>
<path d="M218.732 411.647L126.985 359.402L197.735 235.251L261.195 271.391L273.368 315.775L218.732 411.647ZM128.911 358.874L218.204 409.722L271.855 315.582L259.991 272.325L198.263 237.176L128.911 358.874Z" fill="#262626"/>
<path opacity="0.3" d="M260.592 271.856L244.683 299.774L272.61 315.677L260.592 271.856Z" fill="#007AFF"/>
<path d="M272.61 316.382C272.488 316.382 272.367 316.351 272.261 316.29L244.333 300.387C244.17 300.294 244.051 300.141 244.002 299.96C243.952 299.779 243.977 299.587 244.069 299.424L259.978 271.505C260.047 271.384 260.151 271.286 260.276 271.223C260.401 271.161 260.541 271.137 260.68 271.154C260.818 271.171 260.949 271.23 261.054 271.321C261.159 271.412 261.235 271.533 261.272 271.668L273.291 315.486C273.32 315.591 273.324 315.701 273.303 315.808C273.282 315.914 273.237 316.014 273.171 316.101C273.105 316.187 273.02 316.257 272.923 316.305C272.826 316.353 272.719 316.378 272.61 316.378V316.382ZM245.645 299.51L271.479 314.221L260.361 273.686L245.645 299.51Z" fill="#292A2E"/>
<path d="M194.373 308.586C196.723 308.586 198.629 306.681 198.629 304.332C198.629 301.983 196.723 300.078 194.373 300.078C192.023 300.078 190.118 301.983 190.118 304.332C190.118 306.681 192.023 308.586 194.373 308.586Z" fill="#292A2E"/>
<path d="M234.288 326.728C236.638 326.728 238.544 324.824 238.544 322.475C238.544 320.125 236.638 318.221 234.288 318.221C231.938 318.221 230.033 320.125 230.033 322.475C230.033 324.824 231.938 326.728 234.288 326.728Z" fill="#292A2E"/>
<path d="M216.202 352.819C216.018 352.819 215.842 352.747 215.71 352.619C215.578 352.491 215.502 352.317 215.497 352.133C215.408 348.731 214.452 345.408 212.719 342.479C210.986 339.55 208.534 337.112 205.595 335.395C202.655 333.678 199.326 332.74 195.923 332.669C192.52 332.598 189.154 333.397 186.146 334.99C186.064 335.036 185.973 335.065 185.88 335.075C185.786 335.086 185.692 335.077 185.602 335.051C185.511 335.024 185.427 334.98 185.354 334.92C185.282 334.86 185.222 334.787 185.178 334.704C185.134 334.621 185.107 334.529 185.098 334.436C185.09 334.342 185.101 334.248 185.13 334.158C185.158 334.069 185.205 333.986 185.266 333.914C185.327 333.843 185.402 333.785 185.486 333.743C188.707 332.038 192.309 331.184 195.953 331.261C199.596 331.337 203.159 332.342 206.305 334.179C209.452 336.017 212.077 338.627 213.932 341.762C215.787 344.897 216.812 348.453 216.908 352.095C216.913 352.282 216.843 352.463 216.715 352.599C216.586 352.735 216.409 352.814 216.222 352.819H216.202Z" fill="#292A2E"/>
<path d="M198.075 299.979C195.783 299.95 193.546 299.269 191.627 298.016C191.476 297.907 191.374 297.743 191.344 297.559C191.313 297.376 191.356 297.188 191.464 297.036C191.571 296.884 191.734 296.78 191.918 296.748C192.101 296.716 192.29 296.757 192.443 296.863C192.499 296.902 196.64 299.744 201.267 297.977C201.441 297.916 201.632 297.924 201.799 298.002C201.967 298.079 202.097 298.218 202.163 298.391C202.229 298.563 202.225 298.754 202.151 298.923C202.078 299.092 201.942 299.226 201.771 299.296C200.591 299.748 199.339 299.98 198.075 299.979Z" fill="#292A2E"/>
<path d="M241.664 320.26C241.584 320.26 241.506 320.247 241.431 320.221C235.48 318.149 234.804 313.561 234.777 313.366C234.752 313.18 234.802 312.992 234.916 312.843C235.03 312.694 235.198 312.596 235.384 312.571C235.57 312.546 235.758 312.596 235.907 312.709C236.057 312.823 236.155 312.991 236.18 313.177C236.204 313.344 236.806 317.114 241.899 318.888C242.056 318.943 242.189 319.052 242.274 319.196C242.358 319.339 242.39 319.508 242.362 319.672C242.334 319.836 242.249 319.985 242.122 320.093C241.994 320.201 241.833 320.26 241.667 320.26H241.664Z" fill="#292A2E"/>
<path d="M7.20422 156.149C7.11154 156.149 7.01977 156.13 6.93414 156.095C6.84852 156.059 6.77074 156.007 6.70523 155.942C6.63972 155.876 6.58777 155.798 6.55236 155.713C6.51695 155.627 6.49876 155.536 6.49884 155.443V135.533C6.49606 135.439 6.51226 135.345 6.54648 135.257C6.5807 135.169 6.63223 135.088 6.69803 135.021C6.76384 134.953 6.84257 134.899 6.92957 134.862C7.01657 134.826 7.11007 134.807 7.20453 134.807C7.29899 134.807 7.39248 134.826 7.47949 134.862C7.56649 134.899 7.64522 134.953 7.71102 135.021C7.77683 135.088 7.82836 135.169 7.86258 135.257C7.89679 135.345 7.91299 135.439 7.91022 135.533V155.443C7.9103 155.536 7.89209 155.627 7.85664 155.713C7.82119 155.799 7.76919 155.877 7.70361 155.942C7.63804 156.008 7.56018 156.06 7.47449 156.095C7.3888 156.13 7.29696 156.149 7.20422 156.149Z" fill="#262626"/>
<path d="M13.7035 146.194H0.705993C0.518752 146.194 0.33918 146.119 0.206781 145.987C0.0743812 145.855 0 145.675 0 145.488C0 145.301 0.0743812 145.121 0.206781 144.989C0.33918 144.857 0.518752 144.782 0.705993 144.782H13.7035C13.8907 144.782 14.0703 144.857 14.2027 144.989C14.3351 145.121 14.4095 145.301 14.4095 145.488C14.4095 145.675 14.3351 145.855 14.2027 145.987C14.0703 146.119 13.8907 146.194 13.7035 146.194Z" fill="#262626"/>
<path d="M346.229 267.038C346.042 267.038 345.863 266.963 345.73 266.831C345.598 266.699 345.523 266.519 345.523 266.332V236.047C345.523 235.859 345.598 235.68 345.73 235.548C345.863 235.415 346.042 235.341 346.229 235.341C346.417 235.341 346.596 235.415 346.729 235.548C346.861 235.68 346.935 235.859 346.935 236.047V266.332C346.935 266.519 346.861 266.699 346.728 266.831C346.596 266.963 346.417 267.038 346.229 267.038Z" fill="#262626"/>
<path d="M356.117 251.895H336.346C336.158 251.895 335.979 251.821 335.846 251.688C335.714 251.556 335.64 251.376 335.64 251.189C335.64 251.002 335.714 250.822 335.846 250.69C335.979 250.558 336.158 250.483 336.346 250.483H356.117C356.304 250.483 356.484 250.558 356.616 250.69C356.749 250.822 356.823 251.002 356.823 251.189C356.823 251.376 356.749 251.556 356.616 251.688C356.484 251.821 356.304 251.895 356.117 251.895Z" fill="#262626"/>
<path d="M394.351 171.291C394.259 171.292 394.167 171.273 394.081 171.238C393.996 171.202 393.918 171.151 393.852 171.085C393.787 171.019 393.735 170.942 393.699 170.856C393.664 170.77 393.645 170.678 393.646 170.586V155.443C393.646 155.256 393.72 155.076 393.852 154.944C393.985 154.812 394.164 154.737 394.351 154.737C394.539 154.737 394.718 154.812 394.851 154.944C394.983 155.076 395.057 155.256 395.057 155.443V170.586C395.058 170.678 395.039 170.77 395.004 170.856C394.968 170.942 394.916 171.019 394.851 171.085C394.785 171.151 394.707 171.202 394.622 171.238C394.536 171.273 394.444 171.292 394.351 171.291Z" fill="#262626"/>
<path d="M399.295 163.72H389.409C389.316 163.72 389.225 163.702 389.139 163.666C389.053 163.631 388.975 163.579 388.91 163.513C388.844 163.448 388.792 163.37 388.757 163.284C388.721 163.199 388.703 163.107 388.703 163.014C388.703 162.922 388.721 162.83 388.757 162.744C388.792 162.659 388.844 162.581 388.91 162.515C388.975 162.45 389.053 162.398 389.139 162.362C389.225 162.327 389.316 162.309 389.409 162.309H399.295C399.482 162.309 399.662 162.383 399.794 162.515C399.926 162.648 400.001 162.827 400.001 163.014C400.001 163.201 399.926 163.381 399.794 163.513C399.662 163.646 399.482 163.72 399.295 163.72Z" fill="#262626"/>
</svg>
