<svg width="38" height="38" viewBox="0 0 38 38" fill="none" xmlns="http://www.w3.org/2000/svg">
<path d="M30.9529 17.4118C30.2325 15.7903 29.1852 14.335 27.8766 13.1368L26.7967 12.146C26.76 12.1132 26.7159 12.09 26.6681 12.0783C26.6204 12.0666 26.5705 12.0669 26.5229 12.079C26.4753 12.091 26.4314 12.1146 26.395 12.1477C26.3586 12.1807 26.3309 12.2222 26.3143 12.2684L25.8318 13.6526C25.5312 14.521 24.9783 15.4079 24.1953 16.2799C24.1434 16.3356 24.084 16.3504 24.0432 16.3542C24.0023 16.3579 23.9393 16.3504 23.8836 16.2985C23.8316 16.254 23.8057 16.1872 23.8094 16.1204C23.9467 13.8864 23.2787 11.3667 21.8166 8.62427C20.6068 6.34576 18.9258 4.56822 16.8254 3.32876L15.2928 2.42701C15.0924 2.30826 14.8363 2.46412 14.8475 2.69791L14.9291 4.47916C14.9848 5.69634 14.8438 6.77251 14.5098 7.66685C14.1016 8.76158 13.5152 9.77837 12.7656 10.6913C12.244 11.3257 11.6527 11.8996 11.0029 12.402C9.43805 13.605 8.1656 15.1464 7.28086 16.9108C6.3983 18.6906 5.93858 20.6502 5.9375 22.6368C5.9375 24.3883 6.28262 26.0842 6.96543 27.6836C7.62474 29.2236 8.57619 30.6211 9.76719 31.7991C10.9695 32.9866 12.3648 33.9217 13.9197 34.5711C15.5303 35.2465 17.2373 35.5879 19 35.5879C20.7627 35.5879 22.4697 35.2465 24.0803 34.5749C25.6313 33.9292 27.0418 32.9877 28.2328 31.8028C29.4352 30.6153 30.3777 29.2274 31.0346 27.6874C31.7164 26.0923 32.0661 24.3751 32.0625 22.6405C32.0625 20.8295 31.6914 19.0706 30.9529 17.4118Z" fill="#0D99FF"/>
</svg>
