<svg width="34" height="34" viewBox="0 0 34 34" fill="none" xmlns="http://www.w3.org/2000/svg">
<path d="M31.1668 5.58162L17.0002 0.623291L2.8335 5.58162V17C2.8335 22.8465 6.42333 26.9336 9.7695 29.4709C11.7898 30.9873 14.0056 32.2239 16.357 33.1471C16.5176 33.2076 16.6791 33.2652 16.8415 33.32L17.0002 33.3766L17.1617 33.32C17.4714 33.2124 17.7785 33.0971 18.0825 32.9743C20.2723 32.0721 22.3383 30.8948 24.2308 29.4709C27.5784 26.9336 31.1668 22.8465 31.1668 17V5.58162ZM15.5849 21.8379L9.57683 15.827L11.58 13.8224L15.5863 17.8301L23.6004 9.81604L25.605 11.8192L15.5849 21.8379Z" fill="#0D99FF"/>
</svg>
