<svg width="32" height="32" viewBox="0 0 32 32" fill="none" xmlns="http://www.w3.org/2000/svg">
<rect x="4" y="4" width="24" height="24" rx="12" fill="#FEE4E2"/>
<rect x="4" y="4" width="24" height="24" rx="12" stroke="#FEF3F2" stroke-width="8"/>
<path d="M15.9998 22.6663C14.4554 22.2775 13.1804 21.3913 12.1748 20.008C11.1693 18.6247 10.6665 17.0886 10.6665 15.3997V11.333L15.9998 9.33301L21.3332 11.333V15.3997C21.3332 17.0886 20.8304 18.6247 19.8248 20.008C18.8193 21.3913 17.5443 22.2775 15.9998 22.6663ZM15.9998 21.2663C17.1554 20.8997 18.1109 20.1663 18.8665 19.0663C19.6221 17.9663 19.9998 16.7441 19.9998 15.3997V12.2497L15.9998 10.7497L11.9998 12.2497V15.3997C11.9998 16.7441 12.3776 17.9663 13.1332 19.0663C13.8887 20.1663 14.8443 20.8997 15.9998 21.2663ZM14.6665 18.6663H17.3332C17.5221 18.6663 17.6804 18.6025 17.8082 18.4747C17.9359 18.3469 17.9998 18.1886 17.9998 17.9997V15.9997C17.9998 15.8108 17.9359 15.6525 17.8082 15.5247C17.6804 15.3969 17.5221 15.333 17.3332 15.333V14.6663C17.3332 14.2997 17.2026 13.9858 16.9415 13.7247C16.6804 13.4636 16.3665 13.333 15.9998 13.333C15.6332 13.333 15.3193 13.4636 15.0582 13.7247C14.7971 13.9858 14.6665 14.2997 14.6665 14.6663V15.333C14.4776 15.333 14.3193 15.3969 14.1915 15.5247C14.0637 15.6525 13.9998 15.8108 13.9998 15.9997V17.9997C13.9998 18.1886 14.0637 18.3469 14.1915 18.4747C14.3193 18.6025 14.4776 18.6663 14.6665 18.6663ZM15.3332 15.333V14.6663C15.3332 14.4775 15.3971 14.3191 15.5248 14.1913C15.6526 14.0636 15.8109 13.9997 15.9998 13.9997C16.1887 13.9997 16.3471 14.0636 16.4748 14.1913C16.6026 14.3191 16.6665 14.4775 16.6665 14.6663V15.333H15.3332Z" fill="#47515F"/>
</svg>
