<svg width="34" height="34" viewBox="0 0 34 34" fill="none" xmlns="http://www.w3.org/2000/svg">
<path fill-rule="evenodd" clip-rule="evenodd" d="M17.0735 2.83337H16.9262C14.5462 2.83337 12.662 2.83337 11.1858 3.03454C9.66717 3.24279 8.4375 3.68054 7.4685 4.66654C6.4995 5.65254 6.06884 6.90487 5.86484 8.44904C5.6665 9.95071 5.6665 11.8689 5.6665 14.29V19.7101C5.6665 22.1326 5.6665 24.0508 5.86484 25.551C6.06884 27.0952 6.4995 28.3475 7.4685 29.3335C8.4375 30.3195 9.66717 30.7573 11.1858 30.9655C12.6606 31.1667 14.5462 31.1667 16.9262 31.1667H17.0735C19.4535 31.1667 21.3377 31.1667 22.8138 30.9655C24.3325 30.7573 25.5622 30.3195 26.5312 29.3335C27.5002 28.3475 27.9308 27.0952 28.1348 25.551C28.3332 24.0494 28.3332 22.1312 28.3332 19.7101V14.29C28.3332 11.8675 28.3332 9.94929 28.1348 8.44904C27.9308 6.90487 27.5002 5.65254 26.5312 4.66654C25.5622 3.68054 24.3325 3.24279 22.8138 3.03454C21.3391 2.83337 19.4535 2.83337 17.0735 2.83337ZM12.1435 26.2254C12.142 26.0966 12.166 25.9689 12.214 25.8495C12.262 25.73 12.3331 25.6212 12.4233 25.5293C12.5134 25.4375 12.6209 25.3643 12.7394 25.3141C12.8579 25.2638 12.9852 25.2375 13.1139 25.2365H20.8858C21.4227 25.2365 21.8576 25.6785 21.8576 26.2254C21.8589 26.3541 21.8348 26.4818 21.7866 26.6012C21.7384 26.7206 21.6671 26.8292 21.5768 26.921C21.4865 27.0127 21.379 27.0857 21.2604 27.1358C21.1418 27.1859 21.0145 27.212 20.8858 27.2128H13.1139C12.9852 27.212 12.8579 27.1859 12.7393 27.1358C12.6207 27.0857 12.5132 27.0127 12.4229 26.921C12.3326 26.8292 12.2613 26.7206 12.2131 26.6012C12.1649 26.4818 12.1422 26.3541 12.1435 26.2254Z" fill="#0D99FF"/>
</svg>
