<svg width="36" height="27" viewBox="0 0 36 27" fill="none" xmlns="http://www.w3.org/2000/svg">
<path d="M18 0C21.2288 0 23.85 2.62125 23.85 5.85C23.85 9.07875 21.2288 11.7 18 11.7C14.7712 11.7 12.15 9.07875 12.15 5.85C12.15 2.62125 14.7712 0 18 0ZM5.4 4.05C7.63875 4.05 9.45 5.86125 9.45 8.1C9.45 10.3387 7.63875 12.15 5.4 12.15C3.16125 12.15 1.35 10.3387 1.35 8.1C1.35 5.86125 3.16125 4.05 5.4 4.05ZM0 22.5C0 18.5231 3.22312 15.3 7.2 15.3C7.92 15.3 8.6175 15.4069 9.27562 15.6037C7.425 17.6737 6.3 20.4075 6.3 23.4V24.3C6.3 24.9412 6.435 25.5487 6.67687 26.1H1.8C0.804375 26.1 0 25.2956 0 24.3V22.5ZM29.3231 26.1C29.565 25.5487 29.7 24.9412 29.7 24.3V23.4C29.7 20.4075 28.575 17.6737 26.7244 15.6037C27.3825 15.4069 28.08 15.3 28.8 15.3C32.7769 15.3 36 18.5231 36 22.5V24.3C36 25.2956 35.1956 26.1 34.2 26.1H29.3231ZM26.55 8.1C26.55 5.86125 28.3612 4.05 30.6 4.05C32.8387 4.05 34.65 5.86125 34.65 8.1C34.65 10.3387 32.8387 12.15 30.6 12.15C28.3612 12.15 26.55 10.3387 26.55 8.1ZM9 23.4C9 18.4275 13.0275 14.4 18 14.4C22.9725 14.4 27 18.4275 27 23.4V24.3C27 25.2956 26.1956 26.1 25.2 26.1H10.8C9.80437 26.1 9 25.2956 9 24.3V23.4Z" fill="#0D99FF"/>
</svg>
