<svg width="16" height="16" viewBox="0 0 16 16" fill="none" xmlns="http://www.w3.org/2000/svg">
<path d="M7.99984 14.6663C6.45539 14.2775 5.18039 13.3913 4.17484 12.008C3.16928 10.6247 2.6665 9.08856 2.6665 7.39967V3.33301L7.99984 1.33301L13.3332 3.33301V7.39967C13.3332 9.08856 12.8304 10.6247 11.8248 12.008C10.8193 13.3913 9.54428 14.2775 7.99984 14.6663ZM7.99984 13.2663C9.15539 12.8997 10.1109 12.1663 10.8665 11.0663C11.6221 9.96634 11.9998 8.74412 11.9998 7.39967V4.24967L7.99984 2.74967L3.99984 4.24967V7.39967C3.99984 8.74412 4.37762 9.96634 5.13317 11.0663C5.88873 12.1663 6.84428 12.8997 7.99984 13.2663ZM6.6665 10.6663H9.33317C9.52206 10.6663 9.68039 10.6025 9.80817 10.4747C9.93595 10.3469 9.99984 10.1886 9.99984 9.99967V7.99967C9.99984 7.81079 9.93595 7.65245 9.80817 7.52467C9.68039 7.3969 9.52206 7.33301 9.33317 7.33301V6.66634C9.33317 6.29967 9.20262 5.98579 8.9415 5.72467C8.68039 5.46356 8.3665 5.33301 7.99984 5.33301C7.63317 5.33301 7.31928 5.46356 7.05817 5.72467C6.79706 5.98579 6.6665 6.29967 6.6665 6.66634V7.33301C6.47762 7.33301 6.31928 7.3969 6.1915 7.52467C6.06373 7.65245 5.99984 7.81079 5.99984 7.99967V9.99967C5.99984 10.1886 6.06373 10.3469 6.1915 10.4747C6.31928 10.6025 6.47762 10.6663 6.6665 10.6663ZM7.33317 7.33301V6.66634C7.33317 6.47745 7.39706 6.31912 7.52484 6.19134C7.65262 6.06356 7.81095 5.99967 7.99984 5.99967C8.18873 5.99967 8.34706 6.06356 8.47484 6.19134C8.60262 6.31912 8.6665 6.47745 8.6665 6.66634V7.33301H7.33317Z" fill="#CC8D0A"/>
</svg>
