<svg width="70" height="70" viewBox="0 0 70 70" fill="none" xmlns="http://www.w3.org/2000/svg">
<rect width="70" height="70" rx="12" fill="#2057E0"/>
<rect x="0.5" y="0.5" width="69" height="69" rx="11.5" stroke="#B91C1C" stroke-opacity="0.25"/>
<path d="M18.75 50C17.7188 50 16.8359 49.6326 16.1016 48.8979C15.3672 48.1632 15 47.2799 15 46.2479V23.7354C15 22.7035 15.3672 21.8229 16.1016 21.0938C16.8359 20.3646 17.7188 20 18.75 20H51.25C52.2812 20 53.1641 20.3674 53.8984 21.1021C54.6328 21.8368 55 22.7201 55 23.7521V46.2646C55 47.2965 54.6328 48.1771 53.8984 48.9062C53.1641 49.6354 52.2812 50 51.25 50H18.75ZM35 37.5L18.75 28.1771V46.25H51.25V28.1771L35 37.5ZM35 33.0729L51.25 23.75H18.75L35 33.0729ZM18.75 28.1771V23.75V46.25V28.1771Z" fill="#E3E3E3"/>
</svg>
