<?xml version="1.0" encoding="UTF-8"?>
<!DOCTYPE svg PUBLIC "-//W3C//DTD SVG 1.1//EN" "http://www.w3.org/Graphics/SVG/1.1/DTD/svg11.dtd">
<svg xmlns="http://www.w3.org/2000/svg" version="1.1" width="164px" height="168px" style="shape-rendering:geometricPrecision; text-rendering:geometricPrecision; image-rendering:optimizeQuality; fill-rule:evenodd; clip-rule:evenodd" xmlns:xlink="http://www.w3.org/1999/xlink">
<g><path style="opacity:0.945" fill="#fefffe" d="M 82.5,167.5 C 78.5,167.5 74.5,167.5 70.5,167.5C 56.998,165.493 45.8313,159.16 37,148.5C 27.6667,135.167 18.3333,121.833 9,108.5C 4.94209,101.401 1.77542,94.0681 -0.5,86.5C -0.5,83.1667 -0.5,79.8333 -0.5,76.5C 3.40391,66.256 10.0706,58.0894 19.5,52C 47.4687,37.6819 75.4687,23.3486 103.5,9C 116.114,3.55625 128.78,3.22291 141.5,8C 153.143,18.1207 159.309,30.9541 160,46.5C 160.667,70.8333 160.667,95.1667 160,119.5C 158.12,137.06 148.953,149.226 132.5,156C 116.245,162.214 99.5788,166.047 82.5,167.5 Z M 120.5,21.5 C 130.226,20.1082 136.392,24.1082 139,33.5C 139.822,35.7885 140.489,38.1218 141,40.5C 142.59,66.4715 142.923,92.4715 142,118.5C 140.834,127.34 136.334,133.84 128.5,138C 107.729,148.288 86.062,151.288 63.5,147C 59.7216,144.888 56.2216,142.388 53,139.5C 43,125.5 33,111.5 23,97.5C 19.29,91.6578 17.6233,85.3245 18,78.5C 21.1667,74 25,70.1667 29.5,67C 59.6464,51.2601 89.9797,36.0935 120.5,21.5 Z"/></g>
</svg>
