<?xml version="1.0" encoding="UTF-8"?>
<!DOCTYPE svg PUBLIC "-//W3C//DTD SVG 1.1//EN" "http://www.w3.org/Graphics/SVG/1.1/DTD/svg11.dtd">
<svg xmlns="http://www.w3.org/2000/svg" version="1.1" width="500px" height="500px" style="shape-rendering:geometricPrecision; text-rendering:geometricPrecision; image-rendering:optimizeQuality; fill-rule:evenodd; clip-rule:evenodd" xmlns:xlink="http://www.w3.org/1999/xlink">
<g><path style="opacity:0.675" fill="#8c8c8c" d="M 295.5,166.5 C 289.464,166.36 283.464,166.693 277.5,167.5C 278.008,165.767 278.841,165.434 280,166.5C 285.42,164.563 290.586,164.563 295.5,166.5 Z"/></g>
<g><path style="opacity:0.999" fill="#0e0e0e" d="M 277.5,167.5 C 283.464,166.693 289.464,166.36 295.5,166.5C 295.833,166.5 296.167,166.5 296.5,166.5C 296.842,167.338 297.508,167.672 298.5,167.5C 298.833,167.5 299.167,167.5 299.5,167.5C 300.209,168.404 301.209,168.737 302.5,168.5C 305.447,169.781 307.781,171.781 309.5,174.5C 309.833,175.5 310.5,176.167 311.5,176.5C 312.89,177.899 313.89,179.566 314.5,181.5C 314.427,183.027 315.094,184.027 316.5,184.5C 317.441,186.05 318.107,187.716 318.5,189.5C 318.263,190.791 318.596,191.791 319.5,192.5C 320.301,194.042 320.634,195.708 320.5,197.5C 320.232,199.099 320.566,200.432 321.5,201.5C 321.5,201.833 321.5,202.167 321.5,202.5C 321.263,203.791 321.596,204.791 322.5,205.5C 322.954,208.117 323.288,211.117 323.5,214.5C 322.167,214.833 322.167,215.167 323.5,215.5C 323.037,218.482 322.704,221.482 322.5,224.5C 322.5,242.167 322.5,259.833 322.5,277.5C 322.5,278.5 322.5,279.5 322.5,280.5C 321.539,282.265 321.205,284.265 321.5,286.5C 321.78,289.272 321.113,291.772 319.5,294C 319.833,294.333 320.167,294.667 320.5,295C 319.584,295.278 318.918,295.778 318.5,296.5C 317.026,297.436 316.026,298.77 315.5,300.5C 314.557,303.109 312.89,305.109 310.5,306.5C 309.29,306.932 308.29,307.599 307.5,308.5C 300.375,314.731 291.709,319.064 281.5,321.5C 279.901,321.232 278.568,321.566 277.5,322.5C 272.685,324.248 267.685,325.248 262.5,325.5C 260.265,325.205 258.265,325.539 256.5,326.5C 248.547,328.45 240.547,328.783 232.5,327.5C 230.735,326.539 228.735,326.205 226.5,326.5C 226.167,326.5 225.833,326.5 225.5,326.5C 224.486,325.326 223.153,324.66 221.5,324.5C 220.883,324.611 220.383,324.944 220,325.5C 219.722,324.584 219.222,323.918 218.5,323.5C 218.158,322.662 217.492,322.328 216.5,322.5C 215.508,322.672 214.842,322.338 214.5,321.5C 213.738,319.738 212.404,318.738 210.5,318.5C 209.833,318.5 209.5,318.167 209.5,317.5C 209.027,316.094 208.027,315.427 206.5,315.5C 203.806,313.473 201.473,311.139 199.5,308.5C 199.672,307.508 199.338,306.842 198.5,306.5C 197.075,305.078 196.075,303.411 195.5,301.5C 195.167,300.5 194.5,299.833 193.5,299.5C 193.5,299.167 193.5,298.833 193.5,298.5C 193.167,297.5 192.5,296.833 191.5,296.5C 189.678,294.177 187.678,292.011 185.5,290C 186.056,289.617 186.389,289.117 186.5,288.5C 186.167,287.5 185.5,286.833 184.5,286.5C 183.833,286.5 183.5,286.167 183.5,285.5C 183.573,283.973 182.906,282.973 181.5,282.5C 181.5,282.167 181.5,281.833 181.5,281.5C 181.167,280.5 180.5,279.833 179.5,279.5C 179.672,278.508 179.338,277.842 178.5,277.5C 178.573,275.973 177.906,274.973 176.5,274.5C 176.167,274.5 175.833,274.5 175.5,274.5C 174.833,273.167 174.167,271.833 173.5,270.5C 173.573,268.973 172.906,267.973 171.5,267.5C 171.672,266.508 171.338,265.842 170.5,265.5C 170.672,264.508 170.338,263.842 169.5,263.5C 169.672,262.508 169.338,261.842 168.5,261.5C 168.672,260.508 168.338,259.842 167.5,259.5C 166.662,259.158 166.328,258.492 166.5,257.5C 166.737,256.209 166.404,255.209 165.5,254.5C 165.5,254.167 165.5,253.833 165.5,253.5C 165.672,252.508 165.338,251.842 164.5,251.5C 164.5,251.167 164.5,250.833 164.5,250.5C 164.5,245.5 164.5,240.5 164.5,235.5C 164.586,234.504 164.252,233.671 163.5,233C 165.105,231.315 166.438,229.482 167.5,227.5C 168.401,226.71 169.068,225.71 169.5,224.5C 170.5,222.833 171.833,221.5 173.5,220.5C 174.833,220.5 175.5,219.833 175.5,218.5C 175.833,218.5 176.167,218.5 176.5,218.5C 177.5,218.167 178.167,217.5 178.5,216.5C 178.833,216.5 179.167,216.5 179.5,216.5C 180.5,216.167 181.167,215.5 181.5,214.5C 182.492,214.672 183.158,214.338 183.5,213.5C 188.634,210.583 192.801,207.916 196,205.5C 196.383,206.056 196.883,206.389 197.5,206.5C 199.027,206.573 200.027,205.906 200.5,204.5C 201.492,204.672 202.158,204.338 202.5,203.5C 202.833,203.5 203.167,203.5 203.5,203.5C 204.71,203.068 205.71,202.401 206.5,201.5C 207.167,200.833 207.833,200.167 208.5,199.5C 208.5,200.167 208.833,200.5 209.5,200.5C 210.167,200.5 210.5,200.167 210.5,199.5C 210.833,199.5 211.167,199.5 211.5,199.5C 213.027,199.573 214.027,198.906 214.5,197.5C 215.167,197.5 215.5,197.167 215.5,196.5C 216.391,195.89 217.391,195.557 218.5,195.5C 220.153,195.34 221.486,194.674 222.5,193.5C 223.492,193.672 224.158,193.338 224.5,192.5C 225.492,192.672 226.158,192.338 226.5,191.5C 226.842,190.662 227.508,190.328 228.5,190.5C 230.027,190.573 231.027,189.906 231.5,188.5C 232.222,188.082 232.722,187.416 233,186.5C 233.383,187.056 233.883,187.389 234.5,187.5C 235.71,187.068 236.71,186.401 237.5,185.5C 237.833,185.5 238.167,185.5 238.5,185.5C 240.027,185.573 241.027,184.906 241.5,183.5C 242.678,182.338 243.845,181.338 245,180.5C 245.383,181.056 245.883,181.389 246.5,181.5C 248.368,180.737 250.035,179.737 251.5,178.5C 251.833,178.5 252.167,178.5 252.5,178.5C 253.167,178.5 253.5,178.167 253.5,177.5C 255.113,177.056 256.28,176.056 257,174.5C 258.016,175.634 258.683,175.301 259,173.5C 260.016,174.634 260.683,174.301 261,172.5C 262.566,173.061 263.899,172.394 265,170.5C 265.986,171.171 267.153,171.171 268.5,170.5C 269.492,170.672 270.158,170.338 270.5,169.5C 272.229,168.883 273.729,167.883 275,166.5C 275.671,167.252 276.504,167.586 277.5,167.5 Z M 288.5,182.5 C 289.531,183.249 290.698,183.915 292,184.5C 292.399,184.272 292.565,183.938 292.5,183.5C 292.833,183.5 293.167,183.5 293.5,183.5C 293.973,184.906 294.973,185.573 296.5,185.5C 300.63,191.108 303.13,197.442 304,204.5C 304.588,214.833 305.088,225.166 305.5,235.5C 305.448,248.081 305.448,260.414 305.5,272.5C 305.573,279.814 303.573,286.48 299.5,292.5C 296.911,293.419 294.911,295.086 293.5,297.5C 292.508,297.328 291.842,297.662 291.5,298.5C 288.911,298.461 286.911,299.461 285.5,301.5C 281.668,302.443 278.001,303.777 274.5,305.5C 271.505,305.294 268.838,305.96 266.5,307.5C 266.167,307.5 265.833,307.5 265.5,307.5C 264.038,306.529 262.705,306.862 261.5,308.5C 255.751,308.841 250.084,309.507 244.5,310.5C 241.748,310.238 238.748,310.238 235.5,310.5C 225.675,308.026 217.675,302.693 211.5,294.5C 211.573,292.973 210.906,291.973 209.5,291.5C 209.262,289.596 208.262,288.262 206.5,287.5C 206.573,285.973 205.906,284.973 204.5,284.5C 204.068,283.29 203.401,282.29 202.5,281.5C 202.262,279.596 201.262,278.262 199.5,277.5C 199.573,275.973 198.906,274.973 197.5,274.5C 196.974,272.77 195.974,271.436 194.5,270.5C 194.573,268.973 193.906,267.973 192.5,267.5C 191.833,266.5 191.167,265.5 190.5,264.5C 190.573,262.973 189.906,261.973 188.5,261.5C 184.761,255.688 182.428,249.355 181.5,242.5C 181.895,239.098 183.228,236.098 185.5,233.5C 187.027,233.573 188.027,232.906 188.5,231.5C 201.896,224.47 215.23,217.47 228.5,210.5C 230.027,210.573 231.027,209.906 231.5,208.5C 247.114,200.693 262.78,192.86 278.5,185C 281.889,184.224 285.222,183.391 288.5,182.5 Z"/></g>
<g><path style="opacity:0.094" fill="#d7d7d7" d="M 298.5,167.5 C 297.508,167.672 296.842,167.338 296.5,166.5C 297.925,164.969 298.591,165.302 298.5,167.5 Z"/></g>
<g><path style="opacity:0.004" fill="#e7e7e7" d="M 302.5,168.5 C 301.209,168.737 300.209,168.404 299.5,167.5C 299.435,167.062 299.601,166.728 300,166.5C 300.995,167.066 301.828,167.733 302.5,168.5 Z"/></g>
<g><path style="opacity:0.396" fill="#c5c5c5" d="M 270.5,169.5 C 270.158,170.338 269.492,170.672 268.5,170.5C 269.006,168.895 269.673,168.561 270.5,169.5 Z"/></g>
<g><path style="opacity:0.004" fill="#e0e0e0" d="M 309.5,174.5 C 310.833,174.5 311.5,175.167 311.5,176.5C 310.5,176.167 309.833,175.5 309.5,174.5 Z"/></g>
<g><path style="opacity:0.008" fill="#ebebeb" d="M 251.5,177.5 C 252.167,176.167 252.833,176.167 253.5,177.5C 253.5,178.167 253.167,178.5 252.5,178.5C 252.5,177.833 252.167,177.5 251.5,177.5 Z"/></g>
<g><path style="opacity:0.012" fill="#eaeaea" d="M 251.5,177.5 C 251.5,177.833 251.5,178.167 251.5,178.5C 250.035,179.737 248.368,180.737 246.5,181.5C 247.507,179.478 249.174,178.145 251.5,177.5 Z"/></g>
<g><path style="opacity:0.122" fill="#d1d1d1" d="M 288.5,182.5 C 290.099,182.232 291.432,182.566 292.5,183.5C 292.565,183.938 292.399,184.272 292,184.5C 290.698,183.915 289.531,183.249 288.5,182.5 Z"/></g>
<g><path style="opacity:0.302" fill="#a3a3a3" d="M 314.5,181.5 C 315.906,181.973 316.573,182.973 316.5,184.5C 315.094,184.027 314.427,183.027 314.5,181.5 Z"/></g>
<g><path style="opacity:0.612" fill="#a4a4a4" d="M 241.5,183.5 C 241.027,184.906 240.027,185.573 238.5,185.5C 238.973,184.094 239.973,183.427 241.5,183.5 Z"/></g>
<g><path style="opacity:0.518" fill="#868686" d="M 293.5,183.5 C 295.027,183.427 296.027,184.094 296.5,185.5C 294.973,185.573 293.973,184.906 293.5,183.5 Z"/></g>
<g><path style="opacity:0.016" fill="#f3f3f3" d="M 237.5,185.5 C 236.71,186.401 235.71,187.068 234.5,187.5C 234.821,185.952 235.821,185.285 237.5,185.5 Z"/></g>
<g><path style="opacity:0.01" fill="#e6e6e6" d="M 231.5,188.5 C 231.027,189.906 230.027,190.573 228.5,190.5C 228.369,189.624 228.702,188.957 229.5,188.5C 230.429,187.45 231.095,187.45 231.5,188.5 Z"/></g>
<g><path style="opacity:0.025" fill="#dfdfdf" d="M 226.5,191.5 C 226.158,192.338 225.492,192.672 224.5,192.5C 224.409,190.302 225.075,189.969 226.5,191.5 Z"/></g>
<g><path style="opacity:0.082" fill="#e1e1e1" d="M 318.5,189.5 C 319.267,190.172 319.934,191.005 320.5,192C 320.272,192.399 319.938,192.565 319.5,192.5C 318.596,191.791 318.263,190.791 318.5,189.5 Z"/></g>
<g><path style="opacity:0.016" fill="#e3e3e3" d="M 224.5,192.5 C 224.158,193.338 223.492,193.672 222.5,193.5C 222.409,191.302 223.075,190.969 224.5,192.5 Z"/></g>
<g><path style="opacity:0.02" fill="#dbdbdb" d="M 222.5,193.5 C 221.486,194.674 220.153,195.34 218.5,195.5C 219.345,193.238 220.678,192.571 222.5,193.5 Z"/></g>
<g><path style="opacity:0.004" fill="#fefffe" d="M 215.5,196.5 C 214.833,195.167 214.833,195.167 215.5,196.5 Z"/></g>
<g><path style="opacity:0.008" fill="#ebebeb" d="M 208.5,199.5 C 209.167,198.167 209.833,198.167 210.5,199.5C 210.5,200.167 210.167,200.5 209.5,200.5C 208.833,200.5 208.5,200.167 208.5,199.5 Z"/></g>
<g><path style="opacity:0.8" fill="#8a8a8a" d="M 214.5,197.5 C 214.027,198.906 213.027,199.573 211.5,199.5C 211.877,197.176 212.877,196.509 214.5,197.5 Z"/></g>
<g><path style="opacity:0.557" fill="#b5b5b5" d="M 320.5,197.5 C 321.289,197.783 321.956,198.283 322.5,199C 322.116,199.951 321.783,200.784 321.5,201.5C 320.566,200.432 320.232,199.099 320.5,197.5 Z"/></g>
<g><path style="opacity:0.224" fill="#e4e4e4" d="M 206.5,201.5 C 205.71,202.401 204.71,203.068 203.5,203.5C 203.369,202.624 203.702,201.957 204.5,201.5C 205.429,200.45 206.095,200.45 206.5,201.5 Z"/></g>
<g><path style="opacity:0.173" fill="#eaeaea" d="M 202.5,203.5 C 202.158,204.338 201.492,204.672 200.5,204.5C 201.006,202.895 201.673,202.561 202.5,203.5 Z"/></g>
<g><path style="opacity:0.09" fill="#eaeaea" d="M 321.5,202.5 C 323.481,203.105 323.815,204.105 322.5,205.5C 321.596,204.791 321.263,203.791 321.5,202.5 Z"/></g>
<g><path style="opacity:0.631" fill="#a0a0a0" d="M 200.5,204.5 C 200.027,205.906 199.027,206.573 197.5,206.5C 197.973,205.094 198.973,204.427 200.5,204.5 Z"/></g>
<g><path style="opacity:0.008" fill="#e4e4e4" d="M 231.5,208.5 C 231.027,209.906 230.027,210.573 228.5,210.5C 228.973,209.094 229.973,208.427 231.5,208.5 Z"/></g>
<g><path style="opacity:0.008" fill="#fefffe" d="M 323.5,210.5 C 324.833,211.167 324.833,211.167 323.5,210.5 Z"/></g>
<g><path style="opacity:0.094" fill="#f4f4f4" d="M 183.5,213.5 C 183.158,214.338 182.492,214.672 181.5,214.5C 182.006,212.895 182.673,212.561 183.5,213.5 Z"/></g>
<g><path style="opacity:0.067" fill="#d7d7d7" d="M 181.5,214.5 C 181.167,215.5 180.5,216.167 179.5,216.5C 179.5,215.167 180.167,214.5 181.5,214.5 Z"/></g>
<g><path style="opacity:0.012" fill="#fefffe" d="M 323.5,214.5 C 324.833,215.167 324.833,215.167 323.5,214.5 Z"/></g>
<g><path style="opacity:0.137" fill="#e6e6e6" d="M 178.5,216.5 C 178.167,217.5 177.5,218.167 176.5,218.5C 176.5,217.833 176.167,217.5 175.5,217.5C 176.172,216.733 177.005,216.066 178,215.5C 178.399,215.728 178.565,216.062 178.5,216.5 Z"/></g>
<g><path style="opacity:0.882" fill="#838383" d="M 175.5,217.5 C 175.5,217.833 175.5,218.167 175.5,218.5C 175.5,219.833 174.833,220.5 173.5,220.5C 173.932,219.29 174.599,218.29 175.5,217.5 Z"/></g>
<g><path style="opacity:0.005" fill="#f4f4f4" d="M 169.5,224.5 C 169.068,225.71 168.401,226.71 167.5,227.5C 166.326,225.632 166.993,224.632 169.5,224.5 Z"/></g>
<g><path style="opacity:0.008" fill="#e5e5e5" d="M 188.5,231.5 C 188.027,232.906 187.027,233.573 185.5,233.5C 185.973,232.094 186.973,231.427 188.5,231.5 Z"/></g>
<g><path style="opacity:0.747" fill="#8a8a8a" d="M 164.5,235.5 C 164.5,240.5 164.5,245.5 164.5,250.5C 163.751,249.469 163.085,248.302 162.5,247C 162.869,244.219 162.869,241.552 162.5,239C 163.085,237.698 163.751,236.531 164.5,235.5 Z"/></g>
<g><path style="opacity:0.071" fill="#dadada" d="M 164.5,251.5 C 165.338,251.842 165.672,252.508 165.5,253.5C 163.302,253.591 162.969,252.925 164.5,251.5 Z"/></g>
<g><path style="opacity:0.275" fill="#cacaca" d="M 322.5,277.5 C 322.5,259.833 322.5,242.167 322.5,224.5C 323.363,223.537 324.03,223.537 324.5,224.5C 323.713,241.526 323.713,258.693 324.5,276C 323.956,276.717 323.289,277.217 322.5,277.5 Z"/></g>
<g><path style="opacity:0.717" fill="#464646" d="M 305.5,235.5 C 306.82,247.735 306.82,260.069 305.5,272.5C 305.448,260.414 305.448,248.081 305.5,235.5 Z"/></g>
<g><path style="opacity:0.016" fill="#e3e3e3" d="M 165.5,254.5 C 166.404,255.209 166.737,256.209 166.5,257.5C 165.761,257.631 165.094,257.464 164.5,257C 165.252,256.329 165.586,255.496 165.5,254.5 Z"/></g>
<g><path style="opacity:0.059" fill="#d9d9d9" d="M 167.5,259.5 C 168.338,259.842 168.672,260.508 168.5,261.5C 166.302,261.591 165.969,260.925 167.5,259.5 Z"/></g>
<g><path style="opacity:0.029" fill="#dcdcdc" d="M 168.5,261.5 C 169.338,261.842 169.672,262.508 169.5,263.5C 167.302,263.591 166.969,262.925 168.5,261.5 Z"/></g>
<g><path style="opacity:0.224" fill="#b7b7b7" d="M 188.5,261.5 C 189.906,261.973 190.573,262.973 190.5,264.5C 189.094,264.027 188.427,263.027 188.5,261.5 Z"/></g>
<g><path style="opacity:0.067" fill="#d2d2d2" d="M 169.5,263.5 C 170.338,263.842 170.672,264.508 170.5,265.5C 168.302,265.591 167.969,264.925 169.5,263.5 Z"/></g>
<g><path style="opacity:0.012" fill="#e7e7e7" d="M 170.5,265.5 C 171.338,265.842 171.672,266.508 171.5,267.5C 169.302,267.591 168.969,266.925 170.5,265.5 Z"/></g>
<g><path style="opacity:0.012" fill="#e0e0e0" d="M 171.5,267.5 C 172.906,267.973 173.573,268.973 173.5,270.5C 172.094,270.027 171.427,269.027 171.5,267.5 Z"/></g>
<g><path style="opacity:0.608" fill="#797979" d="M 192.5,267.5 C 193.906,267.973 194.573,268.973 194.5,270.5C 193.094,270.027 192.427,269.027 192.5,267.5 Z"/></g>
<g><path style="opacity:0.016" fill="#fefffe" d="M 175.5,274.5 C 174.833,275.167 174.833,275.167 175.5,274.5 Z"/></g>
<g><path style="opacity:0.012" fill="#e5e5e5" d="M 176.5,274.5 C 177.906,274.973 178.573,275.973 178.5,277.5C 177.094,277.027 176.427,276.027 176.5,274.5 Z"/></g>
<g><path style="opacity:0.549" fill="#8a8a8a" d="M 197.5,274.5 C 198.906,274.973 199.573,275.973 199.5,277.5C 198.094,277.027 197.427,276.027 197.5,274.5 Z"/></g>
<g><path style="opacity:0.008" fill="#dfdfdf" d="M 178.5,277.5 C 179.338,277.842 179.672,278.508 179.5,279.5C 177.302,279.591 176.969,278.925 178.5,277.5 Z"/></g>
<g><path style="opacity:0.004" fill="#fefffe" d="M 323.5,278.5 C 324.833,279.167 324.833,279.167 323.5,278.5 Z"/></g>
<g><path style="opacity:0.671" fill="#838383" d="M 199.5,277.5 C 201.262,278.262 202.262,279.596 202.5,281.5C 200.738,280.738 199.738,279.404 199.5,277.5 Z"/></g>
<g><path style="opacity:0.004" fill="#dddddd" d="M 179.5,279.5 C 180.5,279.833 181.167,280.5 181.5,281.5C 180.167,281.5 179.5,280.833 179.5,279.5 Z"/></g>
<g><path style="opacity:0.024" fill="#ededed" d="M 181.5,282.5 C 182.906,282.973 183.573,283.973 183.5,285.5C 182.094,285.027 181.427,284.027 181.5,282.5 Z"/></g>
<g><path style="opacity:0.557" fill="#909090" d="M 322.5,280.5 C 322.623,282.208 322.956,284.041 323.5,286C 322.906,286.464 322.239,286.631 321.5,286.5C 321.205,284.265 321.539,282.265 322.5,280.5 Z"/></g>
<g><path style="opacity:0.588" fill="#808080" d="M 204.5,284.5 C 205.906,284.973 206.573,285.973 206.5,287.5C 205.094,287.027 204.427,286.027 204.5,284.5 Z"/></g>
<g><path style="opacity:0.02" fill="#d5d5d5" d="M 184.5,286.5 C 185.5,286.833 186.167,287.5 186.5,288.5C 185.167,288.5 184.5,287.833 184.5,286.5 Z"/></g>
<g><path style="opacity:0.694" fill="#808080" d="M 206.5,287.5 C 208.262,288.262 209.262,289.596 209.5,291.5C 207.738,290.738 206.738,289.404 206.5,287.5 Z"/></g>
<g><path style="opacity:0.514" fill="#8e8e8e" d="M 209.5,291.5 C 210.906,291.973 211.573,292.973 211.5,294.5C 210.094,294.027 209.427,293.027 209.5,291.5 Z"/></g>
<g><path style="opacity:0.886" fill="#7b7b7b" d="M 299.5,292.5 C 298.089,294.914 296.089,296.581 293.5,297.5C 294.911,295.086 296.911,293.419 299.5,292.5 Z"/></g>
<g><path style="opacity:0.012" fill="#dddddd" d="M 191.5,296.5 C 192.5,296.833 193.167,297.5 193.5,298.5C 192.167,298.5 191.5,297.833 191.5,296.5 Z"/></g>
<g><path style="opacity:0.022" fill="#dcdcdc" d="M 291.5,298.5 C 289.819,300.008 287.819,301.008 285.5,301.5C 286.911,299.461 288.911,298.461 291.5,298.5 Z"/></g>
<g><path style="opacity:0.047" fill="#d9d9d9" d="M 318.5,296.5 C 318.446,298.632 317.446,299.965 315.5,300.5C 316.026,298.77 317.026,297.436 318.5,296.5 Z"/></g>
<g><path style="opacity:0.016" fill="#e6e6e6" d="M 193.5,299.5 C 194.5,299.833 195.167,300.5 195.5,301.5C 194.167,301.5 193.5,300.833 193.5,299.5 Z"/></g>
<g><path style="opacity:0.843" fill="#939393" d="M 285.5,301.5 C 282.34,304 278.673,305.333 274.5,305.5C 278.001,303.777 281.668,302.443 285.5,301.5 Z"/></g>
<g><path style="opacity:0.247" fill="#e0e0e0" d="M 198.5,306.5 C 199.338,306.842 199.672,307.508 199.5,308.5C 197.895,307.994 197.561,307.327 198.5,306.5 Z"/></g>
<g><path style="opacity:0.753" fill="#898989" d="M 274.5,305.5 C 272.095,306.768 269.428,307.435 266.5,307.5C 268.838,305.96 271.505,305.294 274.5,305.5 Z"/></g>
<g><path style="opacity:0.565" fill="#b4b4b4" d="M 265.5,307.5 C 264.432,308.434 263.099,308.768 261.5,308.5C 262.705,306.862 264.038,306.529 265.5,307.5 Z"/></g>
<g><path style="opacity:0.004" fill="#e0e0e0" d="M 310.5,306.5 C 310.179,308.048 309.179,308.715 307.5,308.5C 308.29,307.599 309.29,306.932 310.5,306.5 Z"/></g>
<g><path style="opacity:0.482" fill="#858585" d="M 244.5,310.5 C 241.396,311.775 238.396,311.775 235.5,310.5C 238.748,310.238 241.748,310.238 244.5,310.5 Z"/></g>
<g><path style="opacity:0.776" fill="#868686" d="M 206.5,315.5 C 208.027,315.427 209.027,316.094 209.5,317.5C 207.973,317.573 206.973,316.906 206.5,315.5 Z"/></g>
<g><path style="opacity:0.51" fill="#a2a2a2" d="M 210.5,318.5 C 212.404,318.738 213.738,319.738 214.5,321.5C 212.596,321.262 211.262,320.262 210.5,318.5 Z"/></g>
<g><path style="opacity:0.008" fill="#dadada" d="M 277.5,322.5 C 278.568,321.566 279.901,321.232 281.5,321.5C 280.708,323.745 279.375,324.078 277.5,322.5 Z"/></g>
<g><path style="opacity:0.42" fill="#c0c0c0" d="M 216.5,322.5 C 217.492,322.328 218.158,322.662 218.5,323.5C 217.673,324.439 217.006,324.105 216.5,322.5 Z"/></g>
<g><path style="opacity:0.012" fill="#d7d7d7" d="M 221.5,324.5 C 223.153,324.66 224.486,325.326 225.5,326.5C 223.62,326.771 222.287,326.104 221.5,324.5 Z"/></g>
<g><path style="opacity:0.298" fill="#a8a8a8" d="M 256.5,326.5 C 258.265,325.539 260.265,325.205 262.5,325.5C 260.556,326.828 258.556,327.161 256.5,326.5 Z"/></g>
<g><path style="opacity:0.529" fill="#929292" d="M 226.5,326.5 C 228.735,326.205 230.735,326.539 232.5,327.5C 232.565,327.938 232.399,328.272 232,328.5C 230.052,327.891 228.218,327.224 226.5,326.5 Z"/></g>
</svg>
