<?xml version="1.0" encoding="UTF-8"?>
<!DOCTYPE svg PUBLIC "-//W3C//DTD SVG 1.1//EN" "http://www.w3.org/Graphics/SVG/1.1/DTD/svg11.dtd">
<svg xmlns="http://www.w3.org/2000/svg" version="1.1" width="418px" height="121px" style="shape-rendering:geometricPrecision; text-rendering:geometricPrecision; image-rendering:optimizeQuality; fill-rule:evenodd; clip-rule:evenodd" xmlns:xlink="http://www.w3.org/1999/xlink">
<g><path style="opacity:0.93" fill="#FFFFFF" d="M 86.5,3.5 C 94.9904,3.15089 101.49,6.48423 106,13.5C 107.667,16.8333 109.333,20.1667 111,23.5C 113.297,43.098 113.963,62.7647 113,82.5C 112.587,85.2321 111.92,87.8987 111,90.5C 101.434,103.266 88.6011,110.433 72.5,112C 59.4634,115.205 47.1301,113.538 35.5,107C 23.2882,93.4187 13.4549,78.2521 6,61.5C 4.44857,54.2837 6.11523,47.9503 11,42.5C 15.2372,38.9643 19.7372,35.7976 24.5,33C 41.519,23.4897 58.8523,14.4897 76.5,6C 79.9523,5.11534 83.2856,4.282 86.5,3.5 Z M 84.5,19.5 C 91.0516,19.0259 94.8849,22.0259 96,28.5C 97.5145,46.4733 97.8479,64.4733 97,82.5C 93.6016,88.5461 88.4349,92.3794 81.5,94C 71.0272,97.067 60.3605,98.067 49.5,97C 38.3769,86.9406 29.5436,75.1072 23,61.5C 22.0087,59.5527 21.6753,57.5527 22,55.5C 23.8333,52.3333 26.3333,49.8333 29.5,48C 47.6118,37.945 65.9452,28.445 84.5,19.5 Z"/></g>
<g><path style="opacity:0.887" fill="#FFFFFF" d="M 259.5,14.5 C 269.044,14.5399 272.877,19.2066 271,28.5C 265.288,34.677 259.288,35.0103 253,29.5C 250.809,22.5631 252.976,17.5631 259.5,14.5 Z"/></g>
<g><path style="opacity:0.938" fill="#FFFFFF" d="M 302.5,16.5 C 305.167,16.5 307.833,16.5 310.5,16.5C 310.666,20.8461 310.499,25.1794 310,29.5C 306.667,31.2468 303.833,33.5801 301.5,36.5C 304.193,38.2702 307.193,38.9368 310.5,38.5C 310.666,42.8461 310.499,47.1794 310,51.5C 307.539,52.2181 305.039,52.8847 302.5,53.5C 301.501,66.8167 301.167,80.15 301.5,93.5C 295.833,93.5 290.167,93.5 284.5,93.5C 284.428,80.4854 283.928,67.4854 283,54.5C 281.333,53.1667 279.667,51.8333 278,50.5C 277.333,46.8333 277.333,43.1667 278,39.5C 280.237,38.9437 282.237,37.9437 284,36.5C 285.247,25.092 291.414,18.4254 302.5,16.5 Z"/></g>
<g><path style="opacity:0.939" fill="#FFFFFF" d="M 181.5,20.5 C 187.167,20.5 192.833,20.5 198.5,20.5C 198.5,44.8333 198.5,69.1667 198.5,93.5C 193.156,93.666 187.823,93.4994 182.5,93C 181.91,91.4905 181.244,89.9905 180.5,88.5C 172.467,93.7407 163.801,94.9074 154.5,92C 147.72,87.6101 143.554,81.4434 142,73.5C 138.94,61.0206 142.107,50.5206 151.5,42C 161.58,36.8404 171.247,37.3404 180.5,43.5C 181.497,35.8622 181.831,28.1955 181.5,20.5 Z M 168.5,53.5 C 176.682,54.0139 180.682,58.3472 180.5,66.5C 178.87,77.8158 172.87,80.9825 162.5,76C 157.92,69.7768 157.753,63.2768 162,56.5C 164.166,55.2685 166.333,54.2685 168.5,53.5 Z"/></g>
<g><path style="opacity:0.932" fill="#FFFFFF" d="M 320.5,24.5 C 326.5,24.5 332.5,24.5 338.5,24.5C 338.5,29.1667 338.5,33.8333 338.5,38.5C 342.167,38.5 345.833,38.5 349.5,38.5C 349.5,43.1667 349.5,47.8333 349.5,52.5C 345.833,52.5 342.167,52.5 338.5,52.5C 338.049,60.9476 338.716,69.281 340.5,77.5C 343.167,78.123 345.667,79.123 348,80.5C 349.367,84.6996 349.867,89.0329 349.5,93.5C 342.308,94.0552 335.308,93.2219 328.5,91C 323.758,87.3509 321.258,82.5176 321,76.5C 320.737,68.4667 320.237,60.4667 319.5,52.5C 314.106,53.2716 312.106,50.9383 313.5,45.5C 313.667,43.5 313.833,41.5 314,39.5C 316.312,39.0449 318.312,38.0449 320,36.5C 320.499,32.5138 320.666,28.5138 320.5,24.5 Z"/></g>
<g><path style="opacity:0.925" fill="#FFFFFF" d="M 243.5,37.5 C 245.456,43.412 246.123,49.7453 245.5,56.5C 239.387,55.4104 234.221,57.077 230,61.5C 227.962,72.0505 227.128,82.7171 227.5,93.5C 221.833,93.5 216.167,93.5 210.5,93.5C 210.5,75.1667 210.5,56.8333 210.5,38.5C 216.167,38.5 221.833,38.5 227.5,38.5C 227.337,40.8568 227.503,43.1902 228,45.5C 232.627,41.604 237.794,38.9374 243.5,37.5 Z"/></g>
<g><path style="opacity:0.937" fill="#FFFFFF" d="M 253.5,38.5 C 259.167,38.5 264.833,38.5 270.5,38.5C 270.5,56.8333 270.5,75.1667 270.5,93.5C 264.833,93.5 259.167,93.5 253.5,93.5C 253.5,75.1667 253.5,56.8333 253.5,38.5 Z"/></g>
<g><path style="opacity:0.942" fill="#FFFFFF" d="M 375.5,38.5 C 397.347,35.0742 409.68,44.2409 412.5,66C 411.111,83.7245 401.611,92.8912 384,93.5C 371.205,93.9324 362.205,88.2657 357,76.5C 352.278,58.2795 358.445,45.6128 375.5,38.5 Z M 382.5,52.5 C 393.394,55.621 396.894,62.621 393,73.5C 387.816,79.1474 382.149,79.8141 376,75.5C 371.02,65.6084 373.187,57.9417 382.5,52.5 Z"/></g>
</svg>
